<?xml version="1.0" encoding="utf-8"?>
<!-- Generator: Adobe Illustrator 24.1.0, SVG Export Plug-In . SVG Version: 6.00 Build 0)  -->
<svg version="1.1" id="Calque_1" xmlns="http://www.w3.org/2000/svg" xmlns:xlink="http://www.w3.org/1999/xlink" x="0px" y="0px"
	 viewBox="0 0 254.42 56.17" style="enable-background:new 0 0 254.42 56.17;" xml:space="preserve">
<style type="text/css">
	.st0{fill:#626262;}
</style>
<path class="st0" d="M22.85,0c-4.51-0.01-9.04,1.02-13.13,3.02v13.24c-1.61,0.92-2.98,1.95-3.33,2.24
	c-1.03,0.97-2.01,2.01-2.81,3.15c-1.49,2.18-2.58,4.64-3.15,7.22c-1.2,5.67,0.11,11.92,3.84,16.39c3.38,4.01,8.25,6.48,13.36,7.45
	c3.96,0.8,8.14,0.69,12.04-0.46c5.22-1.43,9.97-4.24,13.53-8.37c4.07-4.82,6.36-11.01,6.36-17.31c0-8.78-4.46-17.14-11.72-22.07
	C33.37,1.47,28.12,0.01,22.85,0z M15.39,20.16c1.83-0.75,4.82-1.09,7.45-0.97c3.95,0.23,7.34,3.32,7.34,7.39
	c0,2.69-1.49,5.22-3.84,6.48c-2.41,1.32-5.5,1.15-7.74-0.46c-1.2-0.8-2.18-2.06-2.69-3.44C15.22,27.21,15.39,23.03,15.39,20.16z
	 M24.28,47.39c-2.75,0.17-5.56-0.06-8.2-0.92c-5.1-1.66-9.57-5.56-10.37-11.01c-0.63-4.36,0.86-9.06,4.01-12.15
	c-0.4,3.61,0.17,7.39,2.12,10.43c1.49,2.29,3.73,4.13,6.31,5.1c4.24,1.61,9.34,0.8,12.84-2.01c3.55-2.87,5.45-7.62,4.82-12.09
	c-0.69-4.53-3.84-8.54-8.02-10.26c-3.9-1.55-8.31-1.2-12.32-0.23V6.75c1.95-0.86,4.47-1.15,7.39-1.15
	C34.42,5.66,43.82,15,43.82,26.58C43.82,37.53,35.17,46.76,24.28,47.39z"/>
<g>
	<path class="st0" d="M100.89,28.64c1.26-0.27,2.34-0.84,2.68-1.41c0.41-0.67,0.37-1.53-0.08-2.08c-0.48-0.58-0.75-0.71-1.78-0.88
		c-1.31-0.23-2.66,0.08-3.74,0.86c-1.08,0.77-1.81,1.95-2.02,3.26l-0.1,0.63l2.05-0.08C99.02,28.89,100.37,28.76,100.89,28.64z
		 M99.12,44.4c-2.19-0.31-3.61-0.72-5.29-1.55c-3.89-1.92-6.25-5.19-6.9-9.59c-0.21-1.48-0.1-4.59,0.21-5.88
		c1.26-5.22,4.96-8.61,10.61-9.76c1.68-0.34,5.01-0.41,6.55-0.14c5.78,1.01,8.8,4.23,8.46,9.02c-0.3,4.06-3.27,6.58-8.9,7.51
		c-1.38,0.24-4.73,0.51-6.17,0.51l-1.05,0c0.41,0.79,1.44,1.52,1.93,1.77c1.29,0.65,2.05,0.81,4.2,0.88
		c2.88,0.1,6.45-0.66,9.39-1.65c0.18,1.3,1.17,4.06,2.36,5.56c-1.49,1-3.06,2.06-6.28,2.72C105.51,44.38,101.48,44.74,99.12,44.4z
		 M73.69,36.34c2.31-1.08,3.41-3.47,3.07-6.75c-0.21-2.05-1.04-3.4-2.5-4.12c-0.74-0.37-0.94-0.4-2.37-0.4
		c-1.42,0-1.64,0.04-2.29,0.38c-1.29,0.68-2.09,1.98-2.33,3.82c-0.07,0.58-0.14,2.42-0.14,4.06c0,3.01,0,3.03,0.33,3.1
		C68.57,36.71,72.95,36.68,73.69,36.34z M66.84,44.47c-2.7-0.27-4.8-0.68-7.22-1.38l-1.73-0.51V16.46l0.15-10.35h9.08v6.54
		c0,4.06,0.05,6.53,0.14,6.53c0.07,0,0.44-0.18,0.81-0.39c1.69-1,3.68-1.46,6.22-1.46c2.94,0,5.07,0.67,7.12,2.2
		c3.17,2.37,4.76,6.91,4.3,12.29c-0.6,7.02-4.83,11.31-12.28,12.45C71.67,44.53,68.43,44.63,66.84,44.47z M236.81,55.98
		c-0.74-0.1-2.02-0.36-2.83-0.57c-2.27-0.57-5.83-1.98-5.84-2.3c0-0.14,2.26-6.73,2.34-6.84c0.01-0.01,0.61,0.21,1.31,0.53
		c2.33,1.02,4.83,1.56,7.38,1.58c4.47,0,6.09-1.45,6.28-5.59c0.07-1.88,0.14-1.81-0.97-0.95c-1.78,1.37-4.56,1.98-7.63,1.69
		c-1.84-0.17-2.87-0.44-4.23-1.15c-2.05-1.06-3.48-2.88-4.19-5.35c-0.28-0.97-0.33-1.51-0.41-5.75c-0.08-4.52-0.1-4.7-0.4-5.2
		c-0.37-0.6-0.77-0.81-1.53-0.86l-0.57-0.04l-0.04-3.42c-0.03-3.17-0.01-3.44,0.21-3.54c0.14-0.05,1.25-0.14,2.47-0.18
		c1.76-0.05,2.44-0.01,3.29,0.17c2.19,0.48,3.81,1.63,4.69,3.31c0.9,1.72,0.97,2.19,1.07,7.16l0.1,4.49c0,0,0.17,2.78,3.2,2.86
		c1.21,0.03,3.25-0.36,3.94-1.69c0.68-1.32,0.75-2.12,0.75-9.32v-6.72h9.24V31.6c0,14.41,0,14.5-0.77,16.74
		c-1.49,4.38-5,6.99-10.36,7.7C241.82,56.23,238.48,56.21,236.81,55.98L236.81,55.98z"/>
	<path class="st0" d="M180.15,36.39c1.39-0.73,2.29-2.1,2.68-4.13c0.46-2.27-0.21-5-1.48-6.11c-0.97-0.85-1.63-1.06-3.31-1.06
		c-1.35,0-1.56,0.04-2.2,0.38c-2.22,1.18-3.24,4.05-2.57,7.23c0.4,1.86,1.45,3.27,2.85,3.82C177.13,36.91,179.26,36.85,180.15,36.39
		L180.15,36.39z M174.13,44.41c-2.63-0.44-4.42-1.31-6.12-3c-1.93-1.92-3.07-4.26-3.61-7.43c-1.16-6.78,1.4-13.03,6.31-15.44
		c1.86-0.92,3.27-1.24,5.56-1.22c1.11,0,2.33,0.14,2.96,0.29c1.01,0.21,2.62,0.85,3.33,1.38l0.31,0.23V6.11h9.22l0.04,14.39
		c0.04,13.8,0.06,14.4,0.31,14.92c0.37,0.74,0.77,0.97,1.86,1.06l0.92,0.07l-0.03,3.69l-0.04,3.71l-0.43,0.12
		c-0.75,0.23-4.39,0.31-5.35,0.13c-2.62-0.5-3.56-1.14-5.05-3.41c-0.03-0.04-0.44,0.33-0.94,0.81c-1.13,1.11-1.42,1.32-2.47,1.86
		C179.09,44.4,176.35,44.78,174.13,44.41L174.13,44.41z M129.79,36.36c0.89-0.46,1.53-1.3,1.93-2.52c0.28-0.85,0.33-1.32,0.39-4.7
		c0.04-2.46,0-3.79-0.09-3.88c-0.09-0.08-1.04-0.19-2.12-0.21c-2.91-0.1-4.32,0.28-5.72,1.61c-1.17,1.09-1.7,2.56-1.7,4.66
		c0,1.91,0.61,3.44,1.79,4.46c0.89,0.8,1.69,1.02,3.4,0.98C128.88,36.73,129.2,36.67,129.79,36.36L129.79,36.36z M123.82,44.51
		c-4.05-0.48-7.19-2.61-8.81-5.94c-0.81-1.68-1.04-2.39-1.31-4.12c-0.26-1.72-0.19-5.03,0.16-6.56c1.48-6.79,7.25-10.57,16.08-10.57
		c3.15-0.02,5.75,0.37,9.46,1.39l1.95,0.54l0.04,7.89c0.04,7.23,0.05,7.93,0.3,8.34c0.35,0.66,0.81,0.91,1.8,1l0.85,0.08v7.46
		l-0.95,0.13c-1.63,0.2-4.55,0.12-5.57-0.16c-1.83-0.49-3.25-1.5-3.92-2.77l-0.23-0.45l-0.95,0.98c-1.5,1.53-2.95,2.42-5.47,2.8
		C126.27,44.7,124.79,44.64,123.82,44.51z"/>
	<path class="st0" d="M199.67,15.64c-1.52-0.5-2.42-1.28-3.08-2.71c-0.3-0.64-0.36-1-0.36-1.99c0.02-3.01,2.06-4.83,5.43-4.83
		c2.58,0,4.35,1.1,5.08,3.16c0.26,0.74,0.3,2.37,0.07,3.2c-0.38,1.41-1.8,2.81-3.28,3.23C202.47,15.98,200.69,15.97,199.67,15.64z
		 M212.56,43.94c-0.05-0.04-0.1-4.3-0.1-9.44v-9.35h-4.55v-7.23l2.25-0.04l2.23-0.04l0.08-1.92c0.13-2.64,0.34-3.58,1.24-5.34
		c0.87-1.72,2.19-2.98,4.08-3.89c1.34-0.64,2.44-0.93,4.45-1.15c2.05-0.24,5.43,0.17,8.07,0.92c-0.2,1.32-1.01,6.01-1.21,7.26
		c-1.37-0.52-4.43-0.74-5.46-0.38c-1.37,0.5-1.93,1.46-1.95,3.34v1.24h7.67v7.25h-7.67l-0.03,9.42l-0.04,9.41l-4.49,0.04
		C214.68,44.03,212.62,44,212.56,43.94L212.56,43.94z M197.1,43.94c-0.06-0.04-0.1-5.92-0.1-13.07V17.9h9.24v26.14h-4.52
		C199.23,44.04,197.14,44,197.1,43.94L197.1,43.94z M146.34,43.94c-0.06-0.04-0.1-3.89-0.1-8.55c0-7.79-0.01-8.51-0.26-8.95
		c-0.36-0.71-0.82-0.99-1.83-1.09l-0.9-0.1v-3.65c0-3.25,0.03-3.68,0.23-3.75c0.54-0.21,3.21-0.4,4.46-0.31
		c2.96,0.19,4.79,1.17,5.74,3.06c0.21,0.4,0.43,0.73,0.48,0.73c0.05,0,0.3-0.27,0.53-0.58c1.75-2.38,4.9-3.75,8.45-3.25
		c1.55,0.21,3.07,0.64,4.24,1.55c-1.24,1.12-3.55,3.88-4.07,7.04c-0.84-0.34-1.21-0.35-2.2-0.38c-0.71-0.02-1.78,0.12-2.56,0.52
		c-1.01,0.54-1.83,1.38-2.36,2.4c-0.63,1.33-0.72,2.67-0.72,9.26v6.17h-4.52C148.47,44.04,146.38,44,146.34,43.94L146.34,43.94z"/>
</g>
</svg>
