<svg version="1.1" id="Calque_1" xmlns="http://www.w3.org/2000/svg" x="0" y="0" viewBox="0 0 254.42 56.17" xml:space="preserve"><style>.st0{fill:#6d49c9}</style><path class="st0" d="M22.85 0c-4.51-.01-9.04 1.02-13.13 3.02v13.24c-1.61.92-2.98 1.95-3.33 2.24-1.03.97-2.01 2.01-2.81 3.15a20.806 20.806 0 00-3.15 7.22c-1.2 5.67.11 11.92 3.84 16.39 3.38 4.01 8.25 6.48 13.36 7.45 3.96.8 8.14.69 12.04-.46 5.22-1.43 9.97-4.24 13.53-8.37 4.07-4.82 6.36-11.01 6.36-17.31 0-8.78-4.46-17.14-11.72-22.07C33.37 1.47 28.12.01 22.85 0zm-7.46 20.16c1.83-.75 4.82-1.09 7.45-.97 3.95.23 7.34 3.32 7.34 7.39 0 2.69-1.49 5.22-3.84 6.48-2.41 1.32-5.5 1.15-7.74-.46-1.2-.8-2.18-2.06-2.69-3.44-.69-1.95-.52-6.13-.52-9zm8.89 27.23c-2.75.17-5.56-.06-8.2-.92-5.1-1.66-9.57-5.56-10.37-11.01-.63-4.36.86-9.06 4.01-12.15-.4 3.61.17 7.39 2.12 10.43 1.49 2.29 3.73 4.13 6.31 5.1 4.24 1.61 9.34.8 12.84-2.01 3.55-2.87 5.45-7.62 4.82-12.09-.69-4.53-3.84-8.54-8.02-10.26-3.9-1.55-8.31-1.2-12.32-.23v-7.5c1.95-.86 4.47-1.15 7.39-1.15 11.56.06 20.96 9.4 20.96 20.98 0 10.95-8.65 20.18-19.54 20.81zM100.89 28.64c1.26-.27 2.34-.84 2.68-1.41.41-.67.37-1.53-.08-2.08-.48-.58-.75-.71-1.78-.88-1.31-.23-2.66.08-3.74.86a4.98 4.98 0 00-2.02 3.26l-.1.63 2.05-.08c1.12-.05 2.47-.18 2.99-.3zM99.12 44.4c-2.19-.31-3.61-.72-5.29-1.55-3.89-1.92-6.25-5.19-6.9-9.59-.21-1.48-.1-4.59.21-5.88 1.26-5.22 4.96-8.61 10.61-9.76 1.68-.34 5.01-.41 6.55-.14 5.78 1.01 8.8 4.23 8.46 9.02-.3 4.06-3.27 6.58-8.9 7.51-1.38.24-4.73.51-6.17.51h-1.05c.41.79 1.44 1.52 1.93 1.77 1.29.65 2.05.81 4.2.88 2.88.1 6.45-.66 9.39-1.65.18 1.3 1.17 4.06 2.36 5.56-1.49 1-3.06 2.06-6.28 2.72-2.73.58-6.76.94-9.12.6zm-25.43-8.06c2.31-1.08 3.41-3.47 3.07-6.75-.21-2.05-1.04-3.4-2.5-4.12-.74-.37-.94-.4-2.37-.4-1.42 0-1.64.04-2.29.38-1.29.68-2.09 1.98-2.33 3.82-.07.58-.14 2.42-.14 4.06 0 3.01 0 3.03.33 3.1 1.11.28 5.49.25 6.23-.09zm-6.85 8.13c-2.7-.27-4.8-.68-7.22-1.38l-1.73-.51V16.46l.15-10.35h9.08v6.54c0 4.06.05 6.53.14 6.53.07 0 .44-.18.81-.39 1.69-1 3.68-1.46 6.22-1.46 2.94 0 5.07.67 7.12 2.2 3.17 2.37 4.76 6.91 4.3 12.29-.6 7.02-4.83 11.31-12.28 12.45-1.76.26-5 .36-6.59.2zm169.97 11.51c-.74-.1-2.02-.36-2.83-.57-2.27-.57-5.83-1.98-5.84-2.3 0-.14 2.26-6.73 2.34-6.84.01-.01.61.21 1.31.53 2.33 1.02 4.83 1.56 7.38 1.58 4.47 0 6.09-1.45 6.28-5.59.07-1.88.14-1.81-.97-.95-1.78 1.37-4.56 1.98-7.63 1.69-1.84-.17-2.87-.44-4.23-1.15-2.05-1.06-3.48-2.88-4.19-5.35-.28-.97-.33-1.51-.41-5.75-.08-4.52-.1-4.7-.4-5.2-.37-.6-.77-.81-1.53-.86l-.57-.04-.04-3.42c-.03-3.17-.01-3.44.21-3.54.14-.05 1.25-.14 2.47-.18 1.76-.05 2.44-.01 3.29.17 2.19.48 3.81 1.63 4.69 3.31.9 1.72.97 2.19 1.07 7.16l.1 4.49s.17 2.78 3.2 2.86c1.21.03 3.25-.36 3.94-1.69.68-1.32.75-2.12.75-9.32V18.3h9.24v13.3c0 14.41 0 14.5-.77 16.74-1.49 4.38-5 6.99-10.36 7.7-1.49.19-4.83.17-6.5-.06z"/><path class="st0" d="M180.15 36.39c1.39-.73 2.29-2.1 2.68-4.13.46-2.27-.21-5-1.48-6.11-.97-.85-1.63-1.06-3.31-1.06-1.35 0-1.56.04-2.2.38-2.22 1.18-3.24 4.05-2.57 7.23.4 1.86 1.45 3.27 2.85 3.82 1.01.39 3.14.33 4.03-.13zm-6.02 8.02c-2.63-.44-4.42-1.31-6.12-3-1.93-1.92-3.07-4.26-3.61-7.43-1.16-6.78 1.4-13.03 6.31-15.44 1.86-.92 3.27-1.24 5.56-1.22 1.11 0 2.33.14 2.96.29 1.01.21 2.62.85 3.33 1.38l.31.23V6.11h9.22l.04 14.39c.04 13.8.06 14.4.31 14.92.37.74.77.97 1.86 1.06l.92.07-.03 3.69-.04 3.71-.43.12c-.75.23-4.39.31-5.35.13-2.62-.5-3.56-1.14-5.05-3.41-.03-.04-.44.33-.94.81-1.13 1.11-1.42 1.32-2.47 1.86-1.82.94-4.56 1.32-6.78.95zm-44.34-8.05c.89-.46 1.53-1.3 1.93-2.52.28-.85.33-1.32.39-4.7.04-2.46 0-3.79-.09-3.88-.09-.08-1.04-.19-2.12-.21-2.91-.1-4.32.28-5.72 1.61-1.17 1.09-1.7 2.56-1.7 4.66 0 1.91.61 3.44 1.79 4.46.89.8 1.69 1.02 3.4.98 1.21-.03 1.53-.09 2.12-.4zm-5.97 8.15c-4.05-.48-7.19-2.61-8.81-5.94-.81-1.68-1.04-2.39-1.31-4.12-.26-1.72-.19-5.03.16-6.56 1.48-6.79 7.25-10.57 16.08-10.57 3.15-.02 5.75.37 9.46 1.39l1.95.54.04 7.89c.04 7.23.05 7.93.3 8.34.35.66.81.91 1.8 1l.85.08v7.46l-.95.13c-1.63.2-4.55.12-5.57-.16-1.83-.49-3.25-1.5-3.92-2.77l-.23-.45-.95.98c-1.5 1.53-2.95 2.42-5.47 2.8-.98.15-2.46.09-3.43-.04z"/><path class="st0" d="M199.67 15.64c-1.52-.5-2.42-1.28-3.08-2.71-.3-.64-.36-1-.36-1.99.02-3.01 2.06-4.83 5.43-4.83 2.58 0 4.35 1.1 5.08 3.16.26.74.3 2.37.07 3.2-.38 1.41-1.8 2.81-3.28 3.23-1.06.28-2.84.27-3.86-.06zm12.89 28.3c-.05-.04-.1-4.3-.1-9.44v-9.35h-4.55v-7.23l2.25-.04 2.23-.04.08-1.92c.13-2.64.34-3.58 1.24-5.34.87-1.72 2.19-2.98 4.08-3.89 1.34-.64 2.44-.93 4.45-1.15 2.05-.24 5.43.17 8.07.92-.2 1.32-1.01 6.01-1.21 7.26-1.37-.52-4.43-.74-5.46-.38-1.37.5-1.93 1.46-1.95 3.34v1.24h7.67v7.25h-7.67l-.03 9.42-.04 9.41-4.49.04c-2.45-.01-4.51-.04-4.57-.1zm-15.46 0c-.06-.04-.1-5.92-.1-13.07V17.9h9.24v26.14h-4.52c-2.49 0-4.58-.04-4.62-.1zm-50.76 0c-.06-.04-.1-3.89-.1-8.55 0-7.79-.01-8.51-.26-8.95-.36-.71-.82-.99-1.83-1.09l-.9-.1V21.6c0-3.25.03-3.68.23-3.75.54-.21 3.21-.4 4.46-.31 2.96.19 4.79 1.17 5.74 3.06.21.4.43.73.48.73.05 0 .3-.27.53-.58 1.75-2.38 4.9-3.75 8.45-3.25 1.55.21 3.07.64 4.24 1.55-1.24 1.12-3.55 3.88-4.07 7.04-.84-.34-1.21-.35-2.2-.38-.71-.02-1.78.12-2.56.52a5.69 5.69 0 00-2.36 2.4c-.63 1.33-.72 2.67-.72 9.26v6.17h-4.52c-2.48-.02-4.57-.06-4.61-.12z"/></svg>
