<svg viewBox="0 0 930 193" xmlns="http://www.w3.org/2000/svg" fill-rule="evenodd" clip-rule="evenodd" stroke-linejoin="round" stroke-miterlimit="2"><path d="M865.1 192.24c-2.7-.36-7.35-1.3-10.3-2.07-8.28-2.07-21.22-7.2-21.27-8.38 0-.52 8.23-24.53 8.54-24.9.05-.05 2.22.78 4.76 1.92a67.72 67.72 0 0026.86 5.74c16.3 0 22.2-5.27 22.87-20.38.26-6.84.52-6.58-3.52-3.47-6.47 4.97-16.61 7.2-27.79 6.16-6.72-.62-10.45-1.6-15.42-4.2-7.45-3.88-12.68-10.5-15.27-19.5-1.03-3.52-1.19-5.5-1.5-20.96-.3-16.46-.36-17.13-1.45-18.95-1.34-2.17-2.79-2.95-5.58-3.15l-2.07-.16-.16-12.47c-.1-11.54-.05-12.52.78-12.89.51-.2 4.55-.51 9-.67 6.42-.2 8.9-.05 12 .62 7.98 1.76 13.88 5.95 17.08 12.06 3.26 6.26 3.52 7.97 3.89 26.08l.36 16.36s.6 10.12 11.64 10.4c4.39.1 11.85-1.3 14.34-6.16 2.48-4.81 2.74-7.71 2.74-33.95V54.84h33.64v48.6c0 52.47 0 52.83-2.8 60.96-5.43 15.94-18.21 25.46-37.72 28.05-5.39.72-17.55.62-23.65-.2zM246.01 150.32c-9.83-.98-17.49-2.48-26.29-5.02l-6.3-1.86V48.29l.55-37.7h33.08V34.4c0 14.8.2 23.8.52 23.8.26 0 1.6-.67 2.95-1.44 6.15-3.63 13.4-5.33 22.66-5.33 10.71 0 18.48 2.43 25.93 8.02 11.54 8.64 17.34 25.15 15.68 44.76-2.17 25.57-17.6 41.2-44.71 45.34-6.47.98-18.27 1.34-24.07.77zm24.95-29.6c8.43-3.93 12.42-12.63 11.18-24.58-.78-7.45-3.78-12.37-9.11-15-2.7-1.35-3.42-1.46-8.64-1.46-5.18 0-5.96.16-8.34 1.4-4.7 2.48-7.6 7.2-8.48 13.92-.26 2.12-.52 8.8-.52 14.8 0 10.97 0 11.03 1.19 11.28 4.09.99 20.03.88 22.72-.36zM363.61 150.06c-7.97-1.14-13.14-2.64-19.25-5.64-14.18-6.98-22.77-18.89-25.15-34.93-.78-5.38-.36-16.71.78-21.42 4.6-19 18.06-31.36 38.66-35.56 6.1-1.24 18.26-1.5 23.85-.51 21.06 3.67 32.04 15.42 30.8 32.86-1.1 14.8-11.91 23.96-32.4 27.37-5.02.88-17.24 1.87-22.46 1.87l-3.84.01c1.5 2.87 5.24 5.52 7.05 6.46 4.7 2.38 7.45 2.95 15.31 3.2 10.51.37 23.5-2.4 34.21-6.01.67 4.72 4.26 14.8 8.59 20.26-5.41 3.66-11.15 7.51-22.87 9.92-10.02 2.06-24.69 3.37-33.28 2.12zm6.42-57.39c4.6-.98 8.54-3.05 9.78-5.12 1.5-2.43 1.35-5.59-.31-7.56-1.76-2.12-2.74-2.58-6.47-3.2a18.11 18.11 0 00-20.96 15l-.36 2.28 7.45-.31c4.09-.2 9-.67 10.87-1.09z" fill="#00bbc5" fill-rule="nonzero"/><path d="M453.58 150.48c-14.74-1.76-26.18-9.52-32.08-21.63-2.95-6.11-3.78-8.7-4.76-15.01-.93-6.26-.68-18.32.57-23.91 5.38-24.74 26.39-38.5 58.58-38.5 11.49-.06 20.96 1.34 34.47 5.07l7.09 1.97.15 28.72c.15 26.34.2 28.87 1.09 30.37 1.29 2.39 2.95 3.32 6.57 3.63l3.1.3v27.18l-3.46.46c-5.95.73-16.56.42-20.29-.57-6.67-1.8-11.85-5.48-14.28-10.09l-.83-1.65-3.47 3.57c-5.48 5.59-10.76 8.8-19.92 10.2-3.63.56-9 .35-12.53-.11zm21.74-29.7c3.26-1.66 5.59-4.72 7.04-9.17 1.03-3.1 1.19-4.81 1.4-17.13.15-8.95 0-13.81-.31-14.12-.32-.31-3.78-.68-7.72-.78-10.6-.36-15.73 1.03-20.85 5.85-4.25 3.98-6.21 9.31-6.21 16.97 0 6.94 2.22 12.53 6.52 16.25 3.26 2.9 6.16 3.73 12.37 3.57 4.45-.1 5.59-.3 7.76-1.45zM636.83 150.12c-9.57-1.6-16.1-4.77-22.3-10.92-7.04-6.99-11.18-15.53-13.15-27.07-4.24-24.68 5.08-47.45 22.98-56.25 6.78-3.37 11.9-4.5 20.24-4.45 4.03 0 8.48.52 10.8 1.04 3.68.78 9.53 3.1 12.12 5.01l1.14.83V10.6h33.59l.15 52.42c.16 50.25.2 52.47 1.14 54.34 1.35 2.69 2.8 3.52 6.78 3.88l3.36.26-.1 13.45-.16 13.5-1.55.42c-2.74.83-15.99 1.14-19.5.47-9.53-1.81-12.95-4.14-18.38-12.42-.1-.16-1.6 1.19-3.41 2.95-4.1 4.03-5.18 4.81-9.01 6.78-6.68 3.41-16.66 4.81-24.74 3.46zm21.9-29.24c5.06-2.64 8.33-7.66 9.77-15.06 1.66-8.28-.77-18.22-5.38-22.26-3.52-3.1-5.95-3.88-12.06-3.88-4.91 0-5.69.16-8.02 1.4-8.07 4.3-11.8 14.75-9.36 26.34 1.44 6.78 5.27 11.9 10.4 13.92 3.67 1.45 11.43 1.24 14.64-.46z" fill="#00bbc5" fill-rule="nonzero"/><path d="M535.59 148.4c-.21-.15-.37-14.17-.37-31.15 0-28.36-.05-31-.93-32.6-1.3-2.59-3-3.62-6.67-3.98l-3.26-.37V67c0-11.85.1-13.4.82-13.66 1.97-.77 11.7-1.45 16.25-1.14 10.77.68 17.44 4.25 20.91 11.13.78 1.45 1.55 2.64 1.76 2.64.2 0 1.09-.98 1.92-2.12C572.38 55.2 583.85 50.2 596.8 52c5.63.78 11.2 2.32 15.45 5.63-4.51 4.07-12.93 14.14-14.83 25.66-3.05-1.24-4.4-1.26-8.02-1.37-2.6-.08-6.47.45-9.32 1.9a20.6 20.6 0 00-8.59 8.75c-2.28 4.86-2.64 9.73-2.64 33.74v22.46H552.4c-9.05 0-16.66-.15-16.81-.36zM720.48 148.4c-.21-.15-.37-21.57-.37-47.6V53.55h33.64v95.22h-16.46c-9.05 0-16.66-.15-16.81-.36zM776.8 148.4c-.2-.15-.36-15.67-.36-34.4V79.93h-16.56V53.6l8.18-.16 8.13-.15.3-6.99c.47-9.62 1.25-13.04 4.5-19.45 3.16-6.27 7.98-10.87 14.86-14.18 4.87-2.33 8.9-3.37 16.2-4.2 7.45-.88 19.77.61 29.4 3.35-.73 4.82-3.68 21.9-4.4 26.46-4.97-1.91-16.15-2.69-19.88-1.4-4.97 1.82-7.04 5.33-7.09 12.17v4.5h27.95v26.4H810.08l-.1 34.3-.16 34.26-16.35.16c-8.95.05-16.46-.05-16.66-.26zM729.84 45.32c-5.54-1.81-8.8-4.66-11.23-9.88-1.09-2.33-1.3-3.63-1.3-7.25.06-10.97 7.51-17.6 19.78-17.6 9.41 0 15.83 4 18.52 11.5.93 2.68 1.09 8.64.26 11.64-1.4 5.12-6.57 10.25-11.95 11.75-3.88 1.08-10.35 1.03-14.08-.16z" fill="#00bbc5" fill-rule="nonzero"/><path d="M80.11 0h12.25c48.26 0 87.44 39.18 87.44 87.44s-39.18 87.44-87.44 87.44S4.92 135.7 4.92 87.44a86.86 86.86 0 018.44-37.47c.86.7 1.74 1.31 2.63 1.84 7.71 4.5 20.81 6.75 30.21 5.22l4.58-.72v28.2c0 30.05.33 33.43 4.1 40.9 6.03 11.97 18.72 21.37 32.79 24.35 7.23 1.52 19.04.88 26.2-1.29 15.82-4.9 28.6-18.16 31.65-32.78 5.54-26.76-17.04-51.67-46.85-51.59-5.78 0-13.41 1.29-17.6 2.9-1.36.48-1.36-.9-1.2-25.24L80.11 0z" fill="#00bbc5"/><path d="M107.6 122.03c12.37-6.26 12.37-22.66 0-29.16-4.67-2.5-13.26-2.5-17.93-.08-4.25 2.25-8.03 6.58-9.08 10.44a14.77 14.77 0 00.33 9.16c1.92 5.39 6.18 9.24 12.45 11.25 3.22 1.05 10.69.24 14.22-1.6z" fill="#00bbc5"/><path d="M107.6 122.03c12.37-6.26 12.37-22.66 0-29.16-4.67-2.5-13.26-2.5-17.93-.08-4.25 2.25-8.03 6.58-9.08 10.44a14.77 14.77 0 00.33 9.16c1.92 5.39 6.18 9.24 12.45 11.25 3.22 1.05 10.69.24 14.22-1.6z" fill="#00bbc5"/></svg>
