<?xml version="1.0" encoding="utf-8"?>
<!-- Generator: Adobe Illustrator 25.0.1, SVG Export Plug-In . SVG Version: 6.00 Build 0)  -->
<svg version="1.1" id="Calque_1" xmlns="http://www.w3.org/2000/svg" xmlns:xlink="http://www.w3.org/1999/xlink" x="0px" y="0px"
	 viewBox="0 0 50.6 53.2" style="enable-background:new 0 0 50.6 53.2;" xml:space="preserve">
<style type="text/css">
	.st0{fill:#4a5167;}
</style>
<path class="st0" d="M22.9,0c-4.5,0-9,1-13.1,3v13.2c-1.6,0.9-3,2-3.3,2.2c-1,1-2,2-2.8,3.1c-1.5,2.2-2.6,4.6-3.2,7.2
	c-1.2,5.7,0.1,11.9,3.8,16.4c3.4,4,8.2,6.5,13.4,7.5c4,0.8,8.1,0.7,12-0.5c5.2-1.4,10-4.2,13.5-8.4c4.1-4.8,6.4-11,6.4-17.3
	c0-8.8-4.5-17.1-11.7-22.1C33.4,1.5,28.1,0,22.9,0z M15.4,20.2c1.8-0.8,4.8-1.1,7.4-1c4,0.2,7.3,3.3,7.3,7.4c0,2.7-1.5,5.2-3.8,6.5
	c-2.4,1.3-5.5,1.2-7.7-0.5c-1.2-0.8-2.2-2.1-2.7-3.4C15.2,27.2,15.4,23,15.4,20.2z M24.3,47.4c-2.8,0.2-5.6-0.1-8.2-0.9
	c-5.1-1.7-9.6-5.6-10.4-11c-0.6-4.4,0.9-9.1,4-12.1c-0.4,3.6,0.2,7.4,2.1,10.4c1.5,2.3,3.7,4.1,6.3,5.1c4.2,1.6,9.3,0.8,12.8-2
	c3.5-2.9,5.5-7.6,4.8-12.1c-0.7-4.5-3.8-8.5-8-10.3c-3.9-1.6-8.3-1.2-12.3-0.2V6.8c2-0.9,4.5-1.2,7.4-1.2c11.6,0.1,21,9.4,21,21
	C43.8,37.5,35.2,46.8,24.3,47.4z"/>
</svg>
