<svg xmlns="http://www.w3.org/2000/svg" viewBox="0 0 50.6 53.2"><path d="M22.9 0c-4.5 0-9 1-13.1 3v13.2c-1.6.9-3 2-3.3 2.2-1 1-2 2-2.8 3.1-1.5 2.2-2.6 4.6-3.2 7.2-1.2 5.7.1 11.9 3.8 16.4 3.4 4 8.2 6.5 13.4 7.5 4 .8 8.1.7 12-.5 5.2-1.4 10-4.2 13.5-8.4 4.1-4.8 6.4-11 6.4-17.3 0-8.8-4.5-17.1-11.7-22.1-4.5-2.8-9.8-4.3-15-4.3zm-7.5 20.2c1.8-.8 4.8-1.1 7.4-1 4 .2 7.3 3.3 7.3 7.4 0 2.7-1.5 5.2-3.8 6.5-2.4 1.3-5.5 1.2-7.7-.5-1.2-.8-2.2-2.1-2.7-3.4-.7-2-.5-6.2-.5-9zm8.9 27.2c-2.8.2-5.6-.1-8.2-.9-5.1-1.7-9.6-5.6-10.4-11-.6-4.4.9-9.1 4-12.1-.4 3.6.2 7.4 2.1 10.4 1.5 2.3 3.7 4.1 6.3 5.1 4.2 1.6 9.3.8 12.8-2 3.5-2.9 5.5-7.6 4.8-12.1-.7-4.5-3.8-8.5-8-10.3-3.9-1.6-8.3-1.2-12.3-.2V6.8c2-.9 4.5-1.2 7.4-1.2 11.6.1 21 9.4 21 21 0 10.9-8.6 20.2-19.5 20.8z" fill="#4a5167"/></svg>
